<svg xmlns="http://www.w3.org/2000/svg" viewBox="0 0 128 128">
  <defs>
    <linearGradient id="tile" x1="16" y1="8" x2="112" y2="124" gradientUnits="userSpaceOnUse">
      <stop stop-color="#2a2158"/><stop offset=".55" stop-color="#12152b"/><stop offset="1" stop-color="#07141d"/>
    </linearGradient>
    <linearGradient id="helm" x1="40" y1="30" x2="108" y2="104" gradientUnits="userSpaceOnUse">
      <stop stop-color="#3a3558"/><stop offset="1" stop-color="#16141f"/>
    </linearGradient>
    <linearGradient id="gold" x1="28" y1="22" x2="96" y2="100" gradientUnits="userSpaceOnUse">
      <stop stop-color="#f4e2a6"/><stop offset="1" stop-color="#c7923a"/>
    </linearGradient>
    <linearGradient id="wing" x1="18" y1="24" x2="62" y2="78" gradientUnits="userSpaceOnUse">
      <stop stop-color="#7ef0d6"/><stop offset="1" stop-color="#2aa8a0"/>
    </linearGradient>
  </defs>
  <rect x="4" y="4" width="120" height="120" rx="28" fill="url(#tile)"/>
  <path d="M38 78c8-22 22-34 42-38 6 10 10 24 8 40-14 8-32 10-50-2z" fill="url(#helm)"/>
  <path d="M52 42c18-4 36 2 46 16 2 14-2 28-12 36-16 4-32 0-44-12 2-16 6-28 10-40z" fill="none" stroke="url(#gold)" stroke-width="4" stroke-linejoin="round"/>
  <path d="M78 46 98 86" fill="none" stroke="url(#gold)" stroke-width="3.5" stroke-linecap="round"/>
  <path d="M34 70c-12-18-8-34 6-42 6 8 10 18 10 30-4 6-10 10-16 12z" fill="url(#wing)"/>
  <path d="M28 40 18 22" fill="none" stroke="#7ef0d6" stroke-width="3" stroke-linecap="round"/>
  <circle cx="16" cy="18" r="4" fill="#7ef0d6"/>
  <rect x="5" y="5" width="118" height="118" rx="27" fill="none" stroke="#fff" stroke-opacity=".14"/>
</svg>
